#Comment line ignore any data following # character 
#Hierarchical Translation and Rotation (.htr) file 
[Header]	
#Header keywords are followed by a single value 
FileType HTR		#Single word string
DataType HTRS		#Translation followed by rotation and scale data
FileVersion 1		#integer
NumSegments 64		#integer
NumFrames 3		#integer
DataFrameRate 30		#integer, data frame rate in this file
EulerRotationOrder ZYX
CalibrationUnits mm
RotationUnits Degrees
GlobalAxisofGravity Y
BoneLengthAxis Y
ScaleFactor 1.00
[SegmentNames&Hierarchy]
#CHILD	PARENT
Pinger_Root GLOBAL
Pelvis Pinger_Root
L_Hip Pelvis
R_Hip Pelvis
Rear_Leg01 Pelvis
Spine1 Pelvis
L_Leg01 L_Hip
L_Leg02 L_Leg01
L_Leg03 L_Leg02
L_Foot L_Leg03
L_Toe1_01 L_Foot
L_Toe2_01 L_Foot
L_Toe3_01 L_Foot
planeAlignerLeft L_Foot
L_Toe1_02 L_Toe1_01
L_Toe1_03 L_Toe1_02
L_Toe2_02 L_Toe2_01
L_Toe2_03 L_Toe2_02
L_Toe3_02 L_Toe3_01
L_Toe3_03 L_Toe3_02
planeLockWeightLeft planeAlignerLeft
R_Leg01 R_Hip
R_Leg02 R_Leg01
R_Leg03 R_Leg02
R_Foot R_Leg03
planeAlignerRight R_Foot
R_Toe1_01 R_Foot
R_Toe2_01 R_Foot
R_Toe3_01 R_Foot
planeLockWeightRight planeAlignerRight
R_Toe1_02 R_Toe1_01
R_Toe1_03 R_Toe1_02
R_Toe2_02 R_Toe2_01
R_Toe2_03 R_Toe2_02
R_Toe3_02 R_Toe3_01
R_Toe3_03 R_Toe3_02
Rear_Leg02 Rear_Leg01
Rear_Leg03 Rear_Leg02
Rear_Leg04 Rear_Leg03
Rear_Foot Rear_Leg04
planeAlignerCenter Rear_Foot
Rear_Toe1_01 Rear_Foot
Rear_Toe2_01 Rear_Foot
Rear_Toe3_01 Rear_Foot
planeLockWeightCenter planeAlignerCenter
Rear_Toe1_02 Rear_Toe1_01
Rear_Toe1_03 Rear_Toe1_02
Rear_Toe2_02 Rear_Toe2_01
Rear_Toe2_03 Rear_Toe2_02
Rear_Toe3_02 Rear_Toe3_01
Rear_Toe3_03 Rear_Toe3_02
Back_Bone Spine1
Head Spine1
Motor_Bone Back_Bone
Ping_Mechanism Back_Bone
BN_LookIK Head
bottomMouth Head
L_Mouth01 Head
L_mouthFront Head
mouthGun Head
R_Mouth01 Head
R_mouthFront Head
TopMouth Head
weapon_bone Head
[BasePosition]
#SegmentName Tx, Ty, Tz, Rx, Ry, Rz, BoneLength
Pinger_Root 0.000000 0.000000 0.000000 -90.000000 0.000000 0.000000 10.000000 
Pelvis 0.000000 0.000000 0.000000 0.000000 0.000000 0.000000 10.000000 
L_Hip 0.000000 0.000000 0.000000 0.000000 0.000000 0.000000 10.000000 
R_Hip 0.000000 0.000000 0.000000 0.000000 0.000000 0.000000 10.000000 
Rear_Leg01 0.000000 0.000000 0.000000 0.000000 0.000000 0.000000 10.000000 
Spine1 0.000000 0.000000 0.000000 0.000000 0.000000 0.000000 10.000000 
L_Leg01 0.000000 0.000000 0.000000 0.000000 0.000000 0.000000 10.000000 
L_Leg02 0.000000 0.000000 0.000000 0.000000 0.000000 0.000000 10.000000 
L_Leg03 0.000000 0.000000 0.000000 0.000000 0.000000 0.000000 10.000000 
L_Foot 0.000000 0.000000 0.000000 0.000000 0.000000 0.000000 10.000000 
L_Toe1_01 0.000000 0.000000 0.000000 0.000000 0.000000 0.000000 10.000000 
L_Toe2_01 0.000000 0.000000 0.000000 0.000000 0.000000 0.000000 10.000000 
L_Toe3_01 0.000000 0.000000 0.000000 0.000000 0.000000 0.000000 10.000000 
planeAlignerLeft 0.000000 0.000000 0.000000 0.000000 0.000000 0.000000 10.000000 
L_Toe1_02 0.000000 0.000000 0.000000 0.000000 0.000000 0.000000 10.000000 
L_Toe1_03 0.000000 0.000000 0.000000 0.000000 0.000000 0.000000 10.000000 
L_Toe2_02 0.000000 0.000000 0.000000 0.000000 0.000000 0.000000 10.000000 
L_Toe2_03 0.000000 0.000000 0.000000 0.000000 0.000000 0.000000 10.000000 
L_Toe3_02 0.000000 0.000000 0.000000 0.000000 0.000000 0.000000 10.000000 
L_Toe3_03 0.000000 0.000000 0.000000 0.000000 0.000000 0.000000 10.000000 
planeLockWeightLeft 0.000000 0.000000 0.000000 0.000000 0.000000 0.000000 10.000000 
R_Leg01 0.000000 0.000000 0.000000 0.000000 0.000000 0.000000 10.000000 
R_Leg02 0.000000 0.000000 0.000000 0.000000 0.000000 0.000000 10.000000 
R_Leg03 0.000000 0.000000 0.000000 0.000000 0.000000 0.000000 10.000000 
R_Foot 0.000000 0.000000 0.000000 0.000000 0.000000 0.000000 10.000000 
planeAlignerRight 0.000000 0.000000 0.000000 0.000000 0.000000 0.000000 10.000000 
R_Toe1_01 0.000000 0.000000 0.000000 0.000000 0.000000 0.000000 10.000000 
R_Toe2_01 0.000000 0.000000 0.000000 0.000000 0.000000 0.000000 10.000000 
R_Toe3_01 0.000000 0.000000 0.000000 0.000000 0.000000 0.000000 10.000000 
planeLockWeightRight 0.000000 0.000000 0.000000 0.000000 0.000000 0.000000 10.000000 
R_Toe1_02 0.000000 0.000000 0.000000 0.000000 0.000000 0.000000 10.000000 
R_Toe1_03 0.000000 0.000000 0.000000 0.000000 0.000000 0.000000 10.000000 
R_Toe2_02 0.000000 0.000000 0.000000 0.000000 0.000000 0.000000 10.000000 
R_Toe2_03 0.000000 0.000000 0.000000 0.000000 0.000000 0.000000 10.000000 
R_Toe3_02 0.000000 0.000000 0.000000 0.000000 0.000000 0.000000 10.000000 
R_Toe3_03 0.000000 0.000000 0.000000 0.000000 0.000000 0.000000 10.000000 
Rear_Leg02 0.000000 0.000000 0.000000 0.000000 0.000000 0.000000 10.000000 
Rear_Leg03 0.000000 0.000000 0.000000 0.000000 0.000000 0.000000 10.000000 
Rear_Leg04 0.000000 0.000000 0.000000 0.000000 0.000000 0.000000 10.000000 
Rear_Foot 0.000000 0.000000 0.000000 0.000000 0.000000 0.000000 10.000000 
planeAlignerCenter 0.000000 0.000000 0.000000 0.000000 0.000000 0.000000 10.000000 
Rear_Toe1_01 0.000000 0.000000 0.000000 0.000000 0.000000 0.000000 10.000000 
Rear_Toe2_01 0.000000 0.000000 0.000000 0.000000 0.000000 0.000000 10.000000 
Rear_Toe3_01 0.000000 0.000000 0.000000 0.000000 0.000000 0.000000 10.000000 
planeLockWeightCenter 0.000000 0.000000 0.000000 0.000000 0.000000 0.000000 10.000000 
Rear_Toe1_02 0.000000 0.000000 0.000000 0.000000 0.000000 0.000000 10.000000 
Rear_Toe1_03 0.000000 0.000000 0.000000 0.000000 0.000000 0.000000 10.000000 
Rear_Toe2_02 0.000000 0.000000 0.000000 0.000000 0.000000 0.000000 10.000000 
Rear_Toe2_03 0.000000 0.000000 0.000000 0.000000 0.000000 0.000000 10.000000 
Rear_Toe3_02 0.000000 0.000000 0.000000 0.000000 0.000000 0.000000 10.000000 
Rear_Toe3_03 0.000000 0.000000 0.000000 0.000000 0.000000 0.000000 10.000000 
Back_Bone 0.000000 0.000000 0.000000 0.000000 0.000000 0.000000 10.000000 
Head 0.000000 0.000000 0.000000 0.000000 0.000000 0.000000 10.000000 
Motor_Bone 0.000000 0.000000 0.000000 0.000000 0.000000 0.000000 10.000000 
Ping_Mechanism 0.000000 0.000000 0.000000 0.000000 0.000000 0.000000 10.000000 
BN_LookIK 0.000000 0.000000 0.000000 0.000000 0.000000 0.000000 10.000000 
bottomMouth 0.000000 0.000000 0.000000 0.000000 0.000000 0.000000 10.000000 
L_Mouth01 0.000000 0.000000 0.000000 0.000000 0.000000 0.000000 10.000000 
L_mouthFront 0.000000 0.000000 0.000000 0.000000 0.000000 0.000000 10.000000 
mouthGun 0.000000 0.000000 0.000000 0.000000 0.000000 0.000000 10.000000 
R_Mouth01 0.000000 0.000000 0.000000 0.000000 0.000000 0.000000 10.000000 
R_mouthFront 0.000000 0.000000 0.000000 0.000000 0.000000 0.000000 10.000000 
TopMouth 0.000000 0.000000 0.000000 0.000000 0.000000 0.000000 10.000000 
weapon_bone 0.000000 0.000000 0.000000 0.000000 0.000000 0.000000 10.000000 
#Beginning of Data. Separated by tabs
#Fr	Tx	Ty	Tz	Rx	Ry	Rz	SF
[Pinger_Root]
18 0.000000 -2203.703613 0.000000 -0.000075 -0.000000 -0.000020 2203.703613
19 0.000000 -2333.333008 0.000000 -0.000075 -0.000000 -0.000020 2333.333008
20 0.000000 -2462.962891 0.000000 -0.000075 -0.000000 -0.000020 2462.962891
[Pelvis]
18 -362.387970 191.484207 4902.807129 -109.425636 -69.961357 102.663788 4919.909668
19 -356.652100 133.339767 4886.656738 -111.526863 -69.423912 102.900772 4901.468750
20 -340.196594 80.661537 4885.101563 -114.999512 -68.599594 104.390373 4897.596680
[L_Hip]
18 5.766392 125.831482 872.656799 -178.250168 -81.786369 87.376007 881.701050
19 5.766392 125.831482 872.656799 -178.250168 -81.786369 87.376007 881.701050
20 5.766392 125.831482 872.656799 -178.250168 -81.786369 87.376007 881.701050
[R_Hip]
18 5.765438 125.836372 -872.654907 -1.748770 81.786041 87.376961 881.699829
19 5.765438 125.836372 -872.654907 -1.748770 81.786041 87.376961 881.699829
20 5.765438 125.836372 -872.654907 -1.748770 81.786041 87.376961 881.699829
[Rear_Leg01]
18 -192.298416 -925.602966 -0.001907 171.224960 0.532565 174.832260 945.367432
19 -192.298416 -925.602966 -0.001907 169.599823 1.262448 177.698074 945.367432
20 -192.298416 -925.602966 -0.001907 167.729538 1.354035 -179.913422 945.367432
[Spine1]
18 290.604584 5.007505 0.000477 9.726384 4.590963 -0.523166 290.647736
19 290.604584 5.007505 0.000477 11.269419 4.992080 -1.450561 290.647736
20 290.604584 5.007505 0.000477 13.004090 5.875757 -1.984876 290.647736
[L_Leg01]
18 761.932007 -0.002384 -0.069261 25.114855 -56.169048 -24.074287 761.932068
19 761.932007 -0.002384 -0.069261 20.182369 -54.307114 -19.992538 761.932068
20 761.932007 -0.002384 -0.069261 15.955387 -52.022408 -15.890029 761.932068
[L_Leg02]
18 1441.140503 -0.000954 -0.000715 0.338365 -0.040372 -124.441856 1441.140503
19 1441.140503 -0.000954 -0.000715 0.320600 -0.033840 -123.481705 1441.140503
20 1441.140503 -0.000954 -0.000715 0.302948 -0.027011 -122.521530 1441.140503
[L_Leg03]
18 1686.963989 -0.000715 -0.000954 0.019233 -0.005964 104.454567 1686.963989
19 1686.963989 -0.000715 -0.000954 0.016889 -0.005766 105.103127 1686.963989
20 1686.963989 -0.000715 -0.000954 0.014547 -0.005542 105.751694 1686.963989
[L_Foot]
18 3041.570068 -30.715107 11.297464 -5.008369 11.284326 51.184334 3041.746094
19 3041.570068 -30.715107 11.297464 -4.439453 10.055343 48.637718 3041.746094
20 3041.570068 -30.715107 11.297464 -3.817840 8.852423 46.087860 3041.746094
[L_Toe1_01]
18 -188.216690 -224.732346 -21.137953 89.052505 -1.725164 -153.909836 293.899567
19 -188.216690 -224.732346 -21.137953 89.006477 -1.696580 -152.375290 293.899567
20 -188.216690 -224.732346 -21.137953 88.961250 -1.666780 -150.841064 293.899567
[L_Toe2_01]
18 200.746536 -219.926590 148.838394 -76.003021 -12.037066 -52.510693 332.896027
19 200.746536 -219.926590 148.838394 -75.743340 -11.742777 -53.837093 332.896027
20 200.746536 -219.926590 148.838394 -75.490990 -11.442733 -55.160526 332.896027
[L_Toe3_01]
18 188.832520 -219.859131 -191.078659 -108.146622 14.878368 -54.451103 347.140900
19 188.832520 -219.859131 -191.078659 -108.465553 14.496198 -55.779575 347.140900
20 188.832520 -219.859131 -191.078659 -108.774681 14.107044 -57.103378 347.140900
[planeAlignerLeft]
18 -68.698418 -719.240662 0.058136 0.000000 -90.000000 -90.001900 722.514099
19 -71.023193 -735.931824 0.055186 0.000000 -90.000000 -90.001900 739.351013
20 -73.347984 -752.623047 0.052236 0.000000 -90.000000 -90.001900 756.188660
[L_Toe1_02]
18 413.761139 0.000477 0.000000 0.001388 -25.496168 0.001388 413.761139
19 413.761139 0.000477 0.000000 0.001386 -25.716486 0.001386 413.761139
20 413.761139 0.000477 0.000000 0.001384 -25.936796 0.001384 413.761139
[L_Toe1_03]
18 464.317322 0.000358 -0.000089 0.004733 61.274586 0.004733 464.317322
19 464.317322 0.000358 -0.000089 0.004376 58.885731 0.004376 464.317322
20 464.317322 0.000358 -0.000089 0.004059 56.373413 0.004059 464.317322
[L_Toe2_02]
18 342.235809 -0.000477 0.000238 0.001181 -77.148933 0.001181 342.235809
19 342.235809 -0.000477 0.000238 0.001182 -76.747871 0.001182 342.235809
20 342.235809 -0.000477 0.000238 0.001182 -76.346779 0.001182 342.235809
[L_Toe2_03]
18 420.210846 -0.000715 0.000000 -179.995621 79.259171 -179.992111 420.210846
19 420.210846 -0.000715 0.000000 -179.994537 80.860313 -179.991028 420.210846
20 420.210846 -0.000715 0.000000 -179.993011 82.462250 -179.989502 420.210846
[L_Toe3_02]
18 329.270111 0.000954 0.000000 0.001177 -80.797577 0.001177 329.270111
19 329.270111 0.000954 0.000000 0.001178 -80.426216 0.001178 329.270111
20 329.270111 0.000954 0.000000 0.001178 -80.054871 0.001178 329.270111
[L_Toe3_03]
18 439.137451 -0.001907 0.000954 -179.996567 77.304680 -179.993042 439.137451
19 439.137451 -0.001907 0.000954 -179.995865 78.795456 -179.992355 439.137451
20 439.137451 -0.001907 0.000954 -179.994965 80.286469 -179.991455 439.137451
[planeLockWeightLeft]
18 999.999023 0.098137 0.076122 -0.011826 -0.004376 0.005620 999.999023
19 999.999023 0.098143 0.076113 -0.011826 -0.004376 0.005620 999.999023
20 999.998962 0.098149 0.076105 -0.011826 -0.004376 0.005620 999.999023
[R_Leg01]
18 761.455627 -0.001907 -0.000358 131.821701 -76.005676 38.385464 761.455688
19 761.455627 -0.001907 -0.000358 108.848038 -65.472107 61.341213 761.455688
20 761.455627 -0.001907 -0.000358 99.070145 -51.881409 71.447083 761.455688
[R_Leg02]
18 1441.140625 0.000000 -0.000238 -0.543083 -0.014524 -144.432220 1441.140625
19 1441.140625 0.000000 -0.000238 -0.651156 -0.081645 -139.229187 1441.140625
20 1441.140625 0.000000 -0.000238 -0.692442 -0.126890 -128.099380 1441.140625
[R_Leg03]
18 1686.963989 0.000954 0.001431 0.011830 -0.006089 113.999702 1686.963989
19 1686.963989 0.000954 0.001431 0.047182 -0.021342 123.154297 1686.963989
20 1686.963989 0.000954 0.001431 0.069840 -0.040050 129.654465 1686.963989
[R_Foot]
18 3041.560059 -30.531288 -11.204481 13.062810 -23.995277 59.687275 3041.734131
19 3041.560059 -30.531288 -11.204481 15.780766 -22.596523 51.479893 3041.734131
20 3041.560059 -30.531288 -11.204481 18.101791 -21.283499 42.033001 3041.734131
[planeAlignerRight]
18 -187.047653 -811.692505 13.946889 0.000000 -89.960434 -90.005180 833.082214
19 -213.089371 -805.486938 13.852844 0.000000 -89.960434 -90.005180 833.311584
20 -237.062683 -801.804443 13.608397 0.000000 -89.960434 -90.005180 836.226196
[R_Toe1_01]
18 -188.383347 -224.864899 21.052242 91.379623 0.750186 -144.702667 294.101532
19 -188.383347 -224.864899 21.052242 91.350792 0.827110 -144.879379 294.101532
20 -188.383347 -224.864899 21.052242 91.321701 0.903945 -145.056137 294.101532
[R_Toe2_01]
18 200.637817 -220.002121 -148.787384 -107.540329 5.877045 -82.474365 332.857574
19 200.637817 -220.002121 -148.787384 -107.590446 6.259331 -82.924377 332.857574
20 200.637817 -220.002121 -148.787384 -107.604065 6.760185 -82.830460 332.857574
[R_Toe3_01]
18 188.606735 -220.092957 191.126343 -67.233696 -8.855350 -83.931564 347.192566
19 188.606735 -220.092957 191.126343 -67.201004 -9.118920 -84.382904 347.192566
20 188.606735 -220.092957 191.126343 -67.208771 -9.472670 -84.287903 347.192566
[planeLockWeightRight]
18 -0.000174 -0.000545 0.076474 -0.011823 -0.004379 -0.000027 0.076476
19 -0.000218 -0.000567 0.076452 -0.011823 -0.004379 -0.000027 0.076454
20 -0.000262 -0.000589 0.076430 -0.011823 -0.004379 -0.000027 0.076433
[R_Toe1_02]
18 413.762085 0.000477 -0.000119 0.001410 -22.626890 0.001410 413.762085
19 413.762085 0.000477 -0.000119 0.001407 -23.028954 0.001407 413.762085
20 413.762085 0.000477 -0.000119 0.001404 -23.431030 0.001404 413.762085
[R_Toe1_03]
18 464.317810 0.000000 0.001088 -0.001076 80.164482 0.001264 464.317810
19 464.317810 0.000000 0.001088 0.005264 78.404274 0.006436 464.317810
20 464.317810 0.000000 0.001088 0.010092 76.644417 0.010092 464.317810
[R_Toe2_02]
18 342.234741 -0.000954 0.000238 -0.002332 -80.202309 -0.002332 342.234741
19 342.234741 -0.000954 0.000238 -0.002331 -80.283272 -0.002331 342.234741
20 342.234741 -0.000954 0.000238 -0.002331 -80.364143 -0.002331 342.234741
[R_Toe2_03]
18 420.210846 0.000715 -0.000268 -179.996017 59.303741 -179.999634 420.210846
19 420.210846 0.000715 -0.000268 -179.996094 58.130901 -179.999725 420.210846
20 420.210846 0.000715 -0.000268 -179.996155 56.958160 -179.999802 420.210846
[R_Toe3_02]
18 329.270355 -0.000477 -0.000954 0.001175 -83.814575 0.001175 329.270355
19 329.270355 -0.000477 -0.000954 0.001175 -83.918205 0.001175 329.270355
20 329.270355 -0.000477 -0.000954 0.001175 -84.021744 0.001175 329.270355
[R_Toe3_03]
18 439.137939 0.000238 0.001431 -179.995041 58.585827 -179.987778 439.137939
19 439.137939 0.000238 0.001431 -179.995361 57.426483 -179.988068 439.137939
20 439.137939 0.000238 0.001431 -179.995651 56.267193 -179.988342 439.137939
[Rear_Leg02]
18 1162.777710 -0.029802 0.005960 -0.427379 2.359966 -114.538017 1162.777710
19 1162.777710 -0.029802 0.005960 -1.283368 4.176964 -113.120499 1162.777710
20 1162.777710 -0.029802 0.005960 -2.306193 5.471488 -110.657341 1162.777710
[Rear_Leg03]
18 607.192505 -0.013351 -0.073195 0.010634 -0.004804 64.983017 607.192505
19 607.192505 -0.013351 -0.073195 0.010543 -0.005001 67.106514 607.192505
20 607.192505 -0.013351 -0.073195 0.010483 -0.005126 68.467468 607.192505
[Rear_Leg04]
18 995.874512 -0.020504 -0.011921 -0.040692 -0.014685 59.585457 995.874573
19 995.874512 -0.020504 -0.011921 -0.043845 -0.017309 63.977295 995.874573
20 995.874512 -0.020504 -0.011921 -0.040208 -0.018770 67.314362 995.874573
[Rear_Foot]
18 3096.176270 -0.067472 -0.041425 18.635365 83.510399 -156.612305 3096.176270
19 3096.176270 -0.067472 -0.041425 28.539362 81.704147 -151.259537 3096.176270
20 3096.176270 -0.067472 -0.041425 35.369503 80.310814 -148.883987 3096.176270
[planeAlignerCenter]
18 1.036320 -74.233704 -695.432739 0.000009 0.000003 -179.999985 699.384277
19 1.034489 -69.696053 -712.864380 0.000009 0.000003 -179.999985 716.264099
20 1.034832 -57.744747 -735.758728 0.000009 0.000003 -179.999985 738.021973
[Rear_Toe1_01]
18 0.653352 83.966492 -371.173737 0.066889 16.786726 90.029976 380.553192
19 0.653352 83.966492 -371.173737 0.070675 18.141838 90.028496 380.553192
20 0.653352 83.966492 -371.173737 0.069850 20.214697 90.029663 380.553192
[Rear_Toe2_01]
18 178.200760 -294.826019 -362.060547 -0.775070 45.409832 -73.583946 499.765686
19 178.200760 -294.826019 -362.060547 -0.772164 46.408375 -73.503357 499.765686
20 178.200760 -294.826019 -362.060547 -0.634372 47.951809 -73.147270 499.765686
[Rear_Toe3_01]
18 -153.359680 -308.780914 -362.060852 0.743332 45.418209 -108.464462 499.952881
19 -153.359680 -308.780914 -362.060852 0.737471 46.412048 -108.547821 499.952881
20 -153.359680 -308.780914 -362.060852 0.573395 47.952610 -108.952095 499.952881
[planeLockWeightCenter]
18 1000.000122 -0.000140 0.076239 -0.011814 -0.004373 -0.000015 1000.000122
19 1000.000122 -0.000124 0.076240 -0.011814 -0.004373 -0.000015 1000.000122
20 1000.000122 -0.000107 0.076240 -0.011814 -0.004373 -0.000015 1000.000122
[Rear_Toe1_02]
18 379.707825 0.194073 0.000477 -0.000767 -33.624729 0.000838 379.707855
19 379.707825 0.194073 0.000477 -0.000767 -33.624729 0.000838 379.707855
20 379.707825 0.194073 0.000477 -0.000767 -33.624729 0.000838 379.707855
[Rear_Toe1_03]
18 500.129700 0.165701 0.000119 -179.989639 82.344063 -179.993149 500.129761
19 500.129700 0.165701 0.000119 -179.987076 84.110275 -179.990570 500.129761
20 500.129700 0.165701 0.000119 -179.973007 87.390152 -179.976517 500.129761
[Rear_Toe2_02]
18 340.494507 0.000238 -0.000954 0.001185 -73.966621 0.001185 340.494507
19 340.494507 0.000238 -0.000954 0.001186 -73.607918 0.001186 340.494507
20 340.494507 0.000238 -0.000954 0.001185 -73.812050 0.001185 340.494507
[Rear_Toe2_03]
18 433.103577 0.000000 0.000238 0.009934 76.430244 0.009934 433.103546
19 433.103577 0.000000 0.000238 0.009501 75.808411 0.009501 433.103546
20 433.103577 0.000000 0.000238 0.009577 75.921280 0.009577 433.103546
[Rear_Toe3_02]
18 340.494141 -0.000358 -0.000477 0.001185 -73.997574 0.001185 340.494171
19 340.494141 -0.000358 -0.000477 0.001186 -73.632637 0.001186 340.494171
20 340.494141 -0.000358 -0.000477 0.001185 -73.821304 0.001185 340.494171
[Rear_Toe3_03]
18 433.103577 0.001431 -0.000238 0.009971 76.480629 0.009971 433.103546
19 433.103577 0.001431 -0.000238 0.009526 75.846016 0.009526 433.103546
20 433.103577 0.001431 -0.000238 0.009589 75.940132 0.009589 433.103546
[Back_Bone]
18 1312.175781 -701.934692 0.000954 -0.529539 -3.650512 -81.000999 1488.125488
19 1312.175781 -701.934692 0.000954 -0.094081 -3.656273 -82.832481 1488.125488
20 1312.175781 -701.934692 0.000954 0.341339 -3.648141 -84.663963 1488.125488
[Head]
18 1406.159424 809.709290 0.001431 -2.909481 -2.233763 24.954142 1622.625488
19 1406.159424 809.709290 0.001431 -2.492060 -2.414066 24.901329 1622.625488
20 1406.159424 809.709290 0.001431 -2.074407 -2.593982 24.847191 1622.625488
[Motor_Bone]
18 1158.364380 -417.834747 0.000477 5.387621 -1.836375 -107.820099 1231.419434
19 1158.364380 -417.834747 0.000477 -0.064466 0.133410 -105.853729 1231.419434
20 1158.364380 -417.834747 0.000477 -5.513655 1.191246 -104.796577 1231.419434
[Ping_Mechanism]
18 1309.710083 -459.767761 -23.620539 0.000103 -0.000053 82.120995 1388.266846
19 1312.994995 -456.957397 -24.830795 0.000103 -0.000053 82.120995 1390.461182
20 1316.970825 -453.493958 -28.730879 0.000103 -0.000053 82.120995 1393.159912
[BN_LookIK]
18 193.241119 1380.371704 -0.002861 0.000000 89.965736 -31.038179 1393.832153
19 193.241119 1380.371704 -0.002861 0.000000 89.965736 -31.038179 1393.832153
20 193.241119 1380.371704 -0.002861 0.000000 89.965736 -31.038179 1393.832153
[bottomMouth]
18 -435.092926 615.759399 -0.000954 -0.000022 0.000016 73.527184 753.966492
19 -435.092926 615.759399 -0.000954 -0.000022 0.000016 73.527184 753.966492
20 -435.092926 615.759399 -0.000954 -0.000022 0.000016 73.527184 753.966492
[L_Mouth01]
18 554.440979 7.658243 838.222046 150.204178 23.759130 109.605339 1005.027161
19 554.440979 7.658243 838.222046 150.204178 23.759130 109.605339 1005.027161
20 554.440979 7.658243 838.222046 150.204178 23.759130 109.605339 1005.027161
[L_mouthFront]
18 551.629089 934.514771 339.150421 0.000081 2.804060 79.119301 1136.941284
19 551.629089 934.514771 339.150421 0.000081 2.804060 79.119301 1136.941284
20 551.629089 934.514771 339.150421 0.000081 2.804060 79.119301 1136.941284
[mouthGun]
18 55.332661 1627.420898 0.000000 0.000023 0.000009 -11.038128 1628.361328
19 55.332661 1627.420898 0.000000 0.000023 0.000009 -11.038128 1628.361328
20 55.332661 1627.420898 0.000000 0.000023 0.000009 -11.038128 1628.361328
[R_Mouth01]
18 554.442383 7.659197 -838.223938 29.795891 -23.759109 109.605331 1005.029541
19 554.442383 7.659197 -838.223938 29.795891 -23.759109 109.605331 1005.029541
20 554.442383 7.659197 -838.223938 29.795891 -23.759109 109.605331 1005.029541
[R_mouthFront]
18 551.629089 934.514282 -339.151367 0.000029 -2.803930 79.119133 1136.941162
19 551.629089 934.514282 -339.151367 0.000029 -2.803930 79.119133 1136.941162
20 551.629089 934.514282 -339.151367 0.000029 -2.803930 79.119133 1136.941162
[TopMouth]
18 461.269867 -56.106091 -0.008583 -0.000059 -0.000268 92.025169 464.669525
19 461.269867 -56.106091 -0.008583 -0.000059 -0.000268 92.025169 464.669525
20 461.269867 -56.106091 -0.008583 -0.000059 -0.000268 92.025169 464.669525
[weapon_bone]
18 -987.239868 1448.372803 0.001431 0.000000 89.965736 -31.038221 1752.833740
19 -987.239868 1448.372803 0.001431 0.000000 89.965736 -31.038221 1752.833740
20 -987.239868 1448.372803 0.001431 0.000000 89.965736 -31.038221 1752.833740
